<svg width="1400" height="900" viewBox="0 0 1400 900" fill="none" xmlns="http://www.w3.org/2000/svg">
  <rect width="1400" height="900" fill="#ebe8e3"/>
  <path d="M0 112.5H1400M0 225H1400M0 337.5H1400M0 450H1400M0 562.5H1400M0 675H1400M0 787.5H1400" stroke="#d8d4cb" stroke-width="2"/>
  <path d="M175 0V900M350 0V900M525 0V900M700 0V900M875 0V900M1050 0V900M1225 0V900" stroke="#d8d4cb" stroke-width="2"/>
  <rect x="86" y="76" width="780" height="84" fill="#0a0a0a"/>
  <text x="118" y="131" fill="#f5f3ee" font-family="Chivo Mono, monospace" font-size="38" font-weight="500">$ media-frame</text>
  <rect x="86" y="212" width="500" height="472" fill="#f5f3ee" stroke="#0a0a0a" stroke-width="4"/>
  <rect x="126" y="258" width="420" height="42" fill="#ff5a1f"/>
  <rect x="126" y="336" width="312" height="28" fill="#0a0a0a"/>
  <rect x="126" y="394" width="374" height="28" fill="#6b6865"/>
  <rect x="126" y="452" width="246" height="28" fill="#6b6865"/>
  <rect x="126" y="548" width="420" height="72" fill="#ebe8e3" stroke="#d8d4cb" stroke-width="3"/>
  <rect x="646" y="212" width="668" height="472" fill="#0a0a0a"/>
  <rect x="694" y="260" width="572" height="328" fill="#f5f3ee"/>
  <rect x="734" y="300" width="210" height="248" fill="#d8d4cb"/>
  <rect x="988" y="300" width="238" height="46" fill="#ff5a1f"/>
  <rect x="988" y="384" width="182" height="24" fill="#1a1a1a"/>
  <rect x="988" y="438" width="214" height="24" fill="#6b6865"/>
  <rect x="988" y="492" width="140" height="24" fill="#6b6865"/>
  <circle cx="1188" cy="628" r="40" fill="#ff5a1f"/>
  <rect x="86" y="740" width="1228" height="2" fill="#0a0a0a"/>
  <text x="86" y="804" fill="#6b6865" font-family="Chivo Mono, monospace" font-size="34">cover / contain / object-position / hard frame</text>
</svg>
